<?xml version="1.0" standalone="no"?>
<!DOCTYPE svg PUBLIC "-//W3C//DTD SVG 20010904//EN"
 "http://www.w3.org/TR/2001/REC-SVG-20010904/DTD/svg10.dtd">
<svg version="1.0" xmlns="http://www.w3.org/2000/svg"
 width="1280.000000pt" height="1107.000000pt" viewBox="0 0 1280.000000 1107.000000"
 preserveAspectRatio="xMidYMid meet">
<g transform="translate(0.000000,1107.000000) scale(0.100000,-0.100000)"
fill="#000000" stroke="none">
<path d="M5755 11049 c-1150 -66 -2372 -291 -3670 -675 -490 -145 -1227 -391
-1462 -487 -553 -228 -692 -431 -584 -854 56 -216 253 -691 390 -937 39 -71
78 -154 87 -185 44 -150 161 -363 232 -423 48 -40 236 -388 272 -503 18 -55
54 -145 81 -200 53 -109 154 -252 192 -272 39 -20 153 -235 167 -314 32 -184
106 -370 206 -520 63 -93 94 -120 146 -126 l43 -5 105 -186 c84 -150 109 -204
128 -276 64 -249 227 -531 327 -567 31 -12 46 -33 138 -193 93 -162 105 -190
120 -266 36 -188 120 -384 226 -524 66 -88 89 -105 141 -106 l35 -1 167 -288
c151 -261 169 -296 183 -367 45 -217 159 -459 282 -595 33 -37 87 -63 116 -57
10 2 155 -230 447 -717 450 -750 518 -856 586 -911 84 -70 193 -92 299 -63 21
6 226 103 453 215 228 113 416 203 417 202 2 -2 30 -58 64 -126 79 -158 198
-436 246 -577 21 -60 41 -113 45 -118 6 -7 92 207 126 315 l17 57 64 -59 c62
-58 162 -130 263 -190 28 -16 52 -30 54 -30 2 0 -15 33 -37 73 -23 40 -85 163
-137 272 -71 150 -244 502 -288 586 -1 3 73 42 165 86 2812 1349 3534 1707
4433 2196 447 243 1031 584 1063 619 9 11 17 36 17 56 0 66 -106 142 -198 142
-28 0 -31 4 -43 52 -16 66 -16 233 1 313 57 285 237 670 467 1004 l58 84 197
90 198 90 -21 29 c-24 33 -150 129 -874 663 -2779 2053 -4710 3575 -5665 4467
l-125 117 -110 -1 c-60 0 -173 -5 -250 -9z m-228 -174 c350 -86 895 -248 960
-285 17 -10 100 -78 185 -152 947 -823 2476 -2023 4483 -3517 l580 -432 7 -77
c8 -94 7 -765 -1 -916 l-6 -108 -440 -207 c-1136 -535 -2344 -1119 -3725
-1803 l-676 -334 -98 110 c-1807 2030 -3326 3908 -4567 5646 -414 578 -868
1245 -856 1256 3 3 111 39 239 80 1249 398 2321 638 3413 763 138 16 257 30
265 30 8 1 115 -24 237 -54z m-4292 -1735 c-3 -5 -30 -10 -58 -10 -237 -1
-446 -170 -537 -436 -75 -217 -68 -561 17 -797 36 -102 100 -223 151 -286 35
-42 41 -55 31 -62 -21 -14 -98 76 -151 178 -98 186 -142 372 -141 603 1 421
185 719 495 800 79 20 203 27 193 10z m545 -734 c0 -10 -17 -17 -57 -21 -154
-17 -273 -70 -368 -163 -110 -107 -183 -246 -233 -442 -25 -97 -27 -121 -27
-315 0 -184 3 -223 23 -314 43 -189 115 -355 211 -481 43 -56 48 -67 36 -79
-19 -19 -38 -2 -103 93 -66 95 -106 177 -147 299 -61 184 -70 248 -69 487 0
207 2 219 31 330 17 63 44 146 61 183 97 213 258 362 454 418 80 22 188 25
188 5z m585 -811 c0 -16 -11 -21 -73 -32 -169 -28 -296 -96 -413 -220 -202
-215 -314 -563 -295 -923 13 -266 80 -479 210 -669 57 -83 64 -111 28 -111
-20 0 -88 88 -140 180 -139 248 -192 606 -137 930 77 451 340 778 689 855 85
19 131 16 131 -10z m665 -910 c0 -19 -25 -31 -85 -40 -120 -17 -277 -96 -387
-194 -154 -137 -297 -418 -343 -676 -22 -124 -30 -340 -16 -452 30 -243 115
-461 249 -636 36 -47 42 -60 32 -72 -25 -30 -48 -16 -105 63 -112 152 -194
351 -232 562 -23 129 -23 391 1 517 75 412 274 722 555 867 162 83 331 115
331 61z m714 -1001 c19 -7 21 -38 4 -51 -7 -6 -42 -16 -78 -22 -168 -32 -319
-118 -465 -265 -242 -244 -378 -566 -392 -931 -12 -323 60 -575 229 -801 42
-57 47 -79 20 -93 -27 -14 -50 5 -109 91 -150 217 -217 445 -217 738 0 181 19
301 71 465 144 451 460 775 838 860 72 16 79 17 99 9z m8415 -296 c-241 -401
-365 -731 -376 -999 -7 -154 10 -244 67 -357 22 -42 36 -78 31 -80 -4 -1 -362
-178 -797 -393 -3738 -1851 -4736 -2341 -4744 -2332 -4 4 -35 49 -71 98 -72
102 -235 275 -323 343 l-60 46 -242 -125 c-133 -68 -241 -126 -239 -128 2 -1
41 -10 87 -17 98 -18 149 -45 224 -122 50 -50 214 -281 214 -301 0 -4 -44 -28
-97 -54 -54 -25 -201 -97 -328 -158 -229 -113 -230 -113 -305 -113 -69 -1 -79
2 -122 32 -58 40 -149 173 -191 280 -36 92 -48 237 -27 330 65 295 367 613
911 960 325 206 1040 602 1541 853 482 241 1636 809 2063 1014 72 34 204 99
295 143 921 445 2539 1211 2562 1212 3 0 -29 -60 -73 -132z m-7562 -914 c9
-25 -18 -42 -99 -63 -188 -48 -359 -152 -510 -310 -253 -263 -398 -606 -415
-982 -13 -291 63 -554 225 -779 55 -76 60 -87 48 -105 -33 -49 -70 -18 -168
135 -92 147 -156 323 -179 497 -18 139 -6 405 24 533 132 550 495 967 947
1086 87 23 114 20 127 -12z"/>
<path d="M7087 9870 c-38 -10 -71 -20 -73 -23 -3 -3 219 -179 493 -392 580
-452 743 -601 743 -681 0 -46 -71 -46 -165 0 -80 38 -121 69 -795 607 -272
217 -500 398 -506 402 -6 3 -48 -4 -93 -16 l-82 -22 603 -488 c332 -268 644
-517 693 -552 107 -78 288 -169 366 -186 80 -17 192 -9 219 16 28 26 22 80
-14 136 -14 21 -26 41 -26 44 0 3 46 -31 103 -76 l102 -81 6 -72 c5 -58 14
-89 45 -147 97 -184 466 -467 665 -510 110 -23 209 2 209 53 0 86 -205 308
-494 535 -231 182 -1919 1473 -1925 1472 -3 0 -37 -9 -74 -19z m2119 -1756
c68 -65 98 -109 87 -126 -8 -15 -78 -8 -120 12 -119 53 -290 205 -333 294 -13
27 -25 71 -28 98 l-5 50 164 -129 c89 -70 196 -160 235 -199z"/>
<path d="M4607 9671 l-67 -38 169 -166 c93 -91 167 -168 164 -171 -4 -3 -15
-6 -25 -6 -26 0 -23 -10 23 -56 38 -38 44 -41 72 -33 30 9 35 5 122 -79 49
-49 230 -224 401 -390 l312 -302 7 -58 c3 -31 9 -68 12 -82 5 -20 -9 -11 -76
50 -261 238 -431 380 -898 748 l-282 223 -63 -47 c-35 -25 -63 -50 -63 -55 0
-5 48 -68 106 -141 207 -259 497 -679 511 -741 14 -62 49 -116 137 -209 44
-46 89 -103 101 -127 28 -52 32 -109 9 -124 -24 -15 -92 13 -161 68 -31 24
-289 292 -573 595 -448 477 -520 550 -538 544 -12 -4 -53 -15 -90 -25 -38 -10
-70 -19 -72 -21 -7 -7 1030 -1132 1115 -1211 99 -92 198 -160 284 -196 82 -34
200 -37 243 -5 24 18 28 29 31 76 2 38 -3 69 -18 102 -11 26 -17 46 -13 44 5
-2 41 -20 81 -41 99 -51 179 -70 272 -65 166 10 212 88 155 266 -13 42 -31
113 -40 157 -8 44 -18 91 -22 104 -5 18 18 3 93 -63 116 -103 254 -197 333
-227 31 -12 88 -24 127 -26 124 -9 173 23 161 106 -6 49 -51 146 -100 219 -20
28 -34 52 -33 52 2 0 43 -23 92 -51 189 -109 332 -159 453 -159 267 0 206 199
-184 599 -114 116 -330 318 -374 348 -2 1 7 15 20 31 13 16 29 37 34 46 8 13
92 -55 515 -419 278 -239 511 -435 519 -435 7 0 51 11 97 26 l83 25 -32 28
c-17 16 -282 238 -587 496 -305 257 -561 478 -568 491 -7 14 -16 47 -19 73 -8
68 12 78 99 51 75 -24 97 -25 104 -6 15 39 -104 164 -202 212 -78 38 -163 45
-193 15 -11 -11 -21 -31 -21 -43 0 -26 54 -144 77 -170 38 -42 -5 -12 -103 72
-57 50 -110 90 -116 90 -6 0 -47 -9 -89 -21 l-78 -21 192 -165 c106 -90 193
-168 195 -172 5 -14 -38 -59 -63 -65 -21 -5 -44 7 -133 73 -222 166 -363 232
-507 239 -263 12 -260 -145 9 -478 88 -109 313 -337 441 -447 114 -99 162
-156 214 -259 39 -77 40 -111 5 -124 -36 -14 -87 1 -151 44 -54 37 -94 74
-696 646 l-385 365 62 19 c33 10 63 20 65 22 6 5 -29 43 -62 66 -27 20 -29 20
-92 3 l-64 -18 -43 39 c-24 21 -110 101 -191 178 -81 78 -151 142 -155 143 -4
1 -37 -15 -75 -36z m1349 -316 c72 -32 158 -91 145 -100 -24 -14 -8 -48 49
-104 71 -71 165 -121 224 -121 39 0 50 -7 182 -129 243 -223 404 -421 404
-498 0 -43 -32 -57 -115 -50 -136 11 -287 110 -570 377 -285 268 -507 545
-493 616 9 48 81 52 174 9z m-1004 -592 c334 -270 423 -347 569 -492 140 -140
188 -215 170 -264 -19 -48 -117 -54 -209 -12 -53 24 -181 113 -182 126 0 3 13
4 30 1 34 -5 46 13 36 54 -9 36 -125 148 -184 178 -45 23 -66 47 -200 233 -82
114 -179 245 -216 291 -36 45 -64 82 -61 82 2 0 114 -88 247 -197z"/>
<path d="M3030 9541 c-63 -58 -64 -59 -47 -82 9 -13 151 -177 315 -364 234
-266 296 -342 283 -347 -48 -21 -414 -109 -420 -101 -3 5 -155 190 -338 410
l-332 400 -53 -9 c-199 -36 -278 -167 -234 -387 34 -166 120 -323 250 -460
128 -133 247 -194 370 -189 l71 3 -66 33 c-80 39 -184 141 -292 284 -142 189
-191 293 -192 403 0 66 18 135 35 135 5 0 383 -465 841 -1032 457 -568 833
-1035 835 -1036 1 -2 57 14 123 35 l121 38 -494 595 c-271 327 -493 596 -492
597 4 4 411 113 423 113 6 0 229 -249 494 -552 265 -304 495 -566 510 -582
l28 -29 113 33 c62 19 115 35 117 36 2 2 -3 9 -11 17 -7 8 -434 483 -947 1056
-514 572 -936 1041 -940 1041 -3 -1 -35 -27 -71 -59z"/>
<path d="M3416 9564 c-22 -22 -20 -52 9 -111 32 -64 119 -146 187 -178 93 -43
178 -28 178 31 0 69 -115 204 -212 249 -62 29 -138 33 -162 9z"/>
</g>
</svg>
